<svg xmlns="http://www.w3.org/2000/svg" xmlns:xlink="http://www.w3.org/1999/xlink" width="500" zoomAndPan="magnify" viewBox="0 0 375 374.999991" height="500" preserveAspectRatio="xMidYMid meet" version="1.2"><defs><clipPath id="bb42a831e4"><path d="M 187.5 0 C 83.945312 0 0 83.945312 0 187.5 C 0 291.054688 83.945312 375 187.5 375 C 291.054688 375 375 291.054688 375 187.5 C 375 83.945312 291.054688 0 187.5 0 Z M 187.5 0 "/></clipPath><clipPath id="013d14e79d"><path d="M 100.203125 96.199219 L 275 96.199219 L 275 278.449219 L 100.203125 278.449219 Z M 100.203125 96.199219 "/></clipPath><clipPath id="d3f2f0bb4a"><path d="M 192.390625 96.257812 C 199.671875 96.695312 206.066406 100.710938 206.851562 105.621094 C 207.53125 111.179688 201.515625 115.703125 193.390625 115.367188 C 185.148438 115.234375 178.589844 110.261719 178.742188 104.636719 C 178.921875 99.671875 185.054688 96.089844 192.390625 96.257812 M 217.359375 263.617188 C 223.285156 262.667969 226.929688 265.058594 225.679688 268.667969 C 224.4375 271.761719 219.136719 275.011719 213.902344 276.109375 C 208.398438 277.054688 204.320312 275.40625 204.964844 272.128906 C 205.574219 268.363281 211.144531 264.433594 217.359375 263.617188 Z M 240.519531 225.152344 C 241.601562 224.472656 242.722656 223.878906 243.832031 223.425781 C 247.949219 219.789062 251.203125 214.582031 252.90625 208.84375 C 254.65625 202.492188 254.46875 195.957031 252.429688 190.539062 C 252.441406 190.609375 252.441406 190.609375 252.457031 190.609375 C 248.832031 185.667969 247.128906 178.539062 248.503906 171.558594 C 250.328125 161.015625 258.210938 155.859375 265.617188 159.605469 C 271.875 163.210938 275.738281 173.320312 274.789062 182.625 C 273.871094 188.820312 270.957031 193.65625 267.132812 195.628906 C 267.152344 195.632812 267.152344 195.632812 267.167969 195.632812 C 263.855469 199.03125 260.996094 204.375 259.328125 210.390625 C 258.363281 213.660156 257.828125 216.882812 257.738281 219.847656 C 257.335938 226.511719 259.421875 225.632812 260.078125 230.289062 C 260.496094 234.222656 259.007812 239.1875 255.851562 243.867188 C 251.375 250.222656 244.148438 255.140625 237.90625 255.472656 C 224.300781 255.023438 231.605469 243.984375 224.851562 236.449219 C 223.179688 234.546875 221.03125 232.894531 218.5 231.601562 C 215.492188 230.109375 212.160156 229.167969 208.691406 228.859375 C 196.542969 227.578125 187.835938 233.890625 184.460938 244.855469 C 183.539062 247.640625 183.3125 250.410156 183.613281 253 C 183.808594 254.996094 186.109375 259.941406 186.109375 259.9375 C 190.367188 263.339844 192.058594 267.820312 190.167969 271.847656 C 187.292969 277.140625 177.894531 279.558594 168.65625 277.898438 C 159.402344 275.683594 152.617188 269.679688 153.726562 263.800781 C 154.320312 261.128906 156.222656 258.882812 159.035156 257.292969 C 163.964844 254.355469 165.332031 256.25 170.410156 251.0625 C 172.546875 248.753906 174.199219 245.886719 175.144531 242.644531 C 180.523438 223.640625 163.59375 221.628906 167.832031 204.921875 C 170.929688 193.085938 183.289062 185.972656 195.34375 189.179688 C 195.359375 189.1875 195.359375 189.1875 195.378906 189.191406 C 197.421875 189.6875 199.425781 190.472656 201.328125 191.5625 C 216.894531 200.558594 205.359375 213.710938 223.554688 223.601562 C 228.945312 226.402344 235.039062 226.914062 240.570312 225.117188 C 240.523438 225.15625 240.523438 225.15625 240.519531 225.152344 Z M 156.296875 152.648438 C 165.3125 157.511719 173.332031 156.722656 180.28125 150.386719 C 187.171875 144.230469 184.335938 143.46875 188.878906 137.910156 C 191.191406 135.117188 194.601562 133.054688 200.066406 131.875 C 224.621094 127.59375 237.5 165.882812 212.304688 172.335938 C 205.617188 174.0625 200.75 173.21875 196.554688 170.804688 C 190.164062 167.152344 193.113281 166.574219 184.609375 164.355469 C 175.015625 161.914062 167.753906 165.300781 161.960938 174.613281 C 159.746094 182.136719 153.859375 188.027344 146.625 189.925781 C 146.617188 189.925781 146.617188 189.925781 146.609375 189.929688 C 135.800781 192.925781 125.339844 186.078125 122.910156 174.898438 C 121.558594 167.925781 123.652344 160.75 127.96875 155.53125 C 134.78125 147.695312 137.765625 146.085938 139.335938 134.75 C 139.929688 130.992188 139.675781 127.574219 138.515625 124.835938 C 136.789062 120.554688 135.648438 121.574219 133.21875 119.210938 C 131.121094 117.203125 130.375 114.367188 131.476562 111.003906 C 133.800781 104.949219 142.25 98.9375 150.730469 96.933594 C 159.8125 95.390625 166.707031 98.917969 165.949219 105.496094 C 165.652344 108.117188 164.378906 110.753906 162.285156 113.15625 C 157.570312 118.820312 155.308594 116.964844 151 124.523438 C 149.421875 127.410156 148.390625 130.628906 148.089844 133.945312 C 147.382812 143.363281 150.15625 147.128906 156.296875 152.648438 Z M 118.382812 203.625 C 127.632812 204.117188 136.171875 213.414062 136.890625 224.019531 C 137.871094 234.085938 131.171875 240.601562 122.546875 239.089844 C 114.753906 237.269531 107.632812 228.890625 106.011719 219.90625 C 104.800781 210.457031 110.050781 202.964844 118.382812 203.625 Z M 111.378906 131.410156 C 116.523438 129.890625 120.039062 133.824219 118.878906 140.484375 C 117.910156 147.46875 112.386719 154.011719 106.898438 154.878906 C 102.023438 155.773438 99.378906 151.246094 100.6875 144.90625 C 102.179688 138.953125 106.8125 133.019531 111.378906 131.410156 Z M 242.328125 119.054688 C 247.058594 120.371094 251.808594 125.203125 253.078125 129.96875 C 254.316406 135.152344 251.335938 138.679688 246.257812 137.734375 C 240.859375 136.898438 235.582031 131.5625 234.722656 126.054688 C 233.792969 120.894531 237.246094 117.824219 242.328125 119.054688 Z M 242.328125 119.054688 "/></clipPath><linearGradient x1="435.93229" gradientTransform="matrix(0.409503,0,0,-0.408089,99.384379,642.329855)" y1="1331.205954" x2="-4.748361" gradientUnits="userSpaceOnUse" y2="898.546836" id="219563353c"><stop style="stop-color:#0deff6;stop-opacity:1;" offset="0"/><stop style="stop-color:#0deff6;stop-opacity:1;" offset="0.125"/><stop style="stop-color:#0deff6;stop-opacity:1;" offset="0.1875"/><stop style="stop-color:#0deff6;stop-opacity:1;" offset="0.21875"/><stop style="stop-color:#0deff6;stop-opacity:1;" offset="0.226562"/><stop style="stop-color:#0eeef6;stop-opacity:1;" offset="0.230469"/><stop style="stop-color:#0fedf6;stop-opacity:1;" offset="0.234375"/><stop style="stop-color:#11ebf6;stop-opacity:1;" offset="0.238281"/><stop style="stop-color:#12eaf6;stop-opacity:1;" offset="0.242188"/><stop style="stop-color:#14e8f6;stop-opacity:1;" offset="0.246094"/><stop style="stop-color:#16e6f6;stop-opacity:1;" offset="0.25"/><stop style="stop-color:#17e5f6;stop-opacity:1;" offset="0.253906"/><stop style="stop-color:#19e3f6;stop-opacity:1;" offset="0.257812"/><stop style="stop-color:#1ae2f6;stop-opacity:1;" offset="0.261719"/><stop style="stop-color:#1ce0f6;stop-opacity:1;" offset="0.265625"/><stop style="stop-color:#1edef6;stop-opacity:1;" offset="0.269531"/><stop style="stop-color:#1fddf6;stop-opacity:1;" offset="0.273438"/><stop style="stop-color:#21dbf6;stop-opacity:1;" offset="0.277344"/><stop style="stop-color:#23d9f6;stop-opacity:1;" offset="0.28125"/><stop style="stop-color:#24d8f6;stop-opacity:1;" offset="0.285156"/><stop style="stop-color:#26d6f6;stop-opacity:1;" offset="0.289062"/><stop style="stop-color:#28d4f6;stop-opacity:1;" offset="0.292969"/><stop style="stop-color:#29d3f6;stop-opacity:1;" offset="0.296875"/><stop style="stop-color:#2bd1f6;stop-opacity:1;" offset="0.300781"/><stop style="stop-color:#2dcff6;stop-opacity:1;" offset="0.304688"/><stop style="stop-color:#2ecef6;stop-opacity:1;" offset="0.308594"/><stop style="stop-color:#30ccf6;stop-opacity:1;" offset="0.3125"/><stop style="stop-color:#32cbf7;stop-opacity:1;" offset="0.316406"/><stop style="stop-color:#33c9f7;stop-opacity:1;" offset="0.320312"/><stop style="stop-color:#35c7f7;stop-opacity:1;" offset="0.324219"/><stop style="stop-color:#37c6f7;stop-opacity:1;" offset="0.328125"/><stop style="stop-color:#38c4f7;stop-opacity:1;" offset="0.332031"/><stop style="stop-color:#3ac2f7;stop-opacity:1;" offset="0.335938"/><stop style="stop-color:#3bc1f7;stop-opacity:1;" offset="0.339844"/><stop style="stop-color:#3dbff7;stop-opacity:1;" offset="0.34375"/><stop style="stop-color:#3fbdf7;stop-opacity:1;" offset="0.347656"/><stop style="stop-color:#40bcf7;stop-opacity:1;" offset="0.351562"/><stop style="stop-color:#42baf7;stop-opacity:1;" offset="0.355469"/><stop style="stop-color:#44b8f7;stop-opacity:1;" offset="0.359375"/><stop style="stop-color:#45b7f7;stop-opacity:1;" offset="0.363281"/><stop style="stop-color:#47b5f7;stop-opacity:1;" offset="0.367188"/><stop style="stop-color:#49b4f7;stop-opacity:1;" offset="0.371094"/><stop style="stop-color:#4ab2f7;stop-opacity:1;" offset="0.375"/><stop style="stop-color:#4cb0f7;stop-opacity:1;" offset="0.378906"/><stop style="stop-color:#4eaff7;stop-opacity:1;" offset="0.382812"/><stop style="stop-color:#4fadf7;stop-opacity:1;" offset="0.386719"/><stop style="stop-color:#51abf7;stop-opacity:1;" offset="0.390625"/><stop style="stop-color:#53aaf7;stop-opacity:1;" offset="0.394531"/><stop style="stop-color:#54a8f7;stop-opacity:1;" offset="0.398438"/><stop style="stop-color:#56a6f7;stop-opacity:1;" offset="0.402344"/><stop style="stop-color:#57a5f7;stop-opacity:1;" offset="0.40625"/><stop style="stop-color:#59a3f7;stop-opacity:1;" offset="0.410156"/><stop style="stop-color:#5ba1f7;stop-opacity:1;" offset="0.414062"/><stop style="stop-color:#5ca0f7;stop-opacity:1;" offset="0.417969"/><stop style="stop-color:#5e9ef7;stop-opacity:1;" offset="0.421875"/><stop style="stop-color:#609df7;stop-opacity:1;" offset="0.425781"/><stop style="stop-color:#619bf7;stop-opacity:1;" offset="0.429688"/><stop style="stop-color:#6399f7;stop-opacity:1;" offset="0.433594"/><stop style="stop-color:#6598f7;stop-opacity:1;" offset="0.4375"/><stop style="stop-color:#6696f7;stop-opacity:1;" offset="0.441406"/><stop style="stop-color:#6894f7;stop-opacity:1;" offset="0.445312"/><stop style="stop-color:#6a93f7;stop-opacity:1;" offset="0.449219"/><stop style="stop-color:#6b91f7;stop-opacity:1;" offset="0.453125"/><stop style="stop-color:#6d8ff7;stop-opacity:1;" offset="0.457031"/><stop style="stop-color:#6f8ef7;stop-opacity:1;" offset="0.460938"/><stop style="stop-color:#708cf7;stop-opacity:1;" offset="0.464844"/><stop style="stop-color:#728af7;stop-opacity:1;" offset="0.46875"/><stop style="stop-color:#7489f7;stop-opacity:1;" offset="0.472656"/><stop style="stop-color:#7587f7;stop-opacity:1;" offset="0.476562"/><stop style="stop-color:#7786f7;stop-opacity:1;" offset="0.480469"/><stop style="stop-color:#7884f7;stop-opacity:1;" offset="0.484375"/><stop style="stop-color:#7a82f7;stop-opacity:1;" offset="0.488281"/><stop style="stop-color:#7c81f7;stop-opacity:1;" offset="0.492188"/><stop style="stop-color:#7d7ff7;stop-opacity:1;" offset="0.496094"/><stop style="stop-color:#7f7df7;stop-opacity:1;" offset="0.5"/><stop style="stop-color:#817cf7;stop-opacity:1;" offset="0.503906"/><stop style="stop-color:#827af7;stop-opacity:1;" offset="0.507812"/><stop style="stop-color:#8478f7;stop-opacity:1;" offset="0.511719"/><stop style="stop-color:#8677f7;stop-opacity:1;" offset="0.515625"/><stop style="stop-color:#8775f8;stop-opacity:1;" offset="0.519531"/><stop style="stop-color:#8974f8;stop-opacity:1;" offset="0.523438"/><stop style="stop-color:#8b72f8;stop-opacity:1;" offset="0.527344"/><stop style="stop-color:#8c70f8;stop-opacity:1;" offset="0.53125"/><stop style="stop-color:#8e6ff8;stop-opacity:1;" offset="0.535156"/><stop style="stop-color:#906df8;stop-opacity:1;" offset="0.539062"/><stop style="stop-color:#916bf8;stop-opacity:1;" offset="0.542969"/><stop style="stop-color:#936af8;stop-opacity:1;" offset="0.546875"/><stop style="stop-color:#9568f8;stop-opacity:1;" offset="0.550781"/><stop style="stop-color:#9666f8;stop-opacity:1;" offset="0.554687"/><stop style="stop-color:#9865f8;stop-opacity:1;" offset="0.558594"/><stop style="stop-color:#9963f8;stop-opacity:1;" offset="0.5625"/><stop style="stop-color:#9b61f8;stop-opacity:1;" offset="0.566406"/><stop style="stop-color:#9d60f8;stop-opacity:1;" offset="0.570312"/><stop style="stop-color:#9e5ef8;stop-opacity:1;" offset="0.574219"/><stop style="stop-color:#a05df8;stop-opacity:1;" offset="0.578125"/><stop style="stop-color:#a25bf8;stop-opacity:1;" offset="0.582031"/><stop style="stop-color:#a359f8;stop-opacity:1;" offset="0.585937"/><stop style="stop-color:#a558f8;stop-opacity:1;" offset="0.589844"/><stop style="stop-color:#a756f8;stop-opacity:1;" offset="0.59375"/><stop style="stop-color:#a854f8;stop-opacity:1;" offset="0.597656"/><stop style="stop-color:#aa53f8;stop-opacity:1;" offset="0.601562"/><stop style="stop-color:#ac51f8;stop-opacity:1;" offset="0.605469"/><stop style="stop-color:#ad4ff8;stop-opacity:1;" offset="0.609375"/><stop style="stop-color:#af4ef8;stop-opacity:1;" offset="0.613281"/><stop style="stop-color:#b14cf8;stop-opacity:1;" offset="0.617187"/><stop style="stop-color:#b24af8;stop-opacity:1;" offset="0.621094"/><stop style="stop-color:#b449f8;stop-opacity:1;" offset="0.625"/><stop style="stop-color:#b547f8;stop-opacity:1;" offset="0.628906"/><stop style="stop-color:#b746f8;stop-opacity:1;" offset="0.632812"/><stop style="stop-color:#b944f8;stop-opacity:1;" offset="0.636719"/><stop style="stop-color:#ba42f8;stop-opacity:1;" offset="0.640625"/><stop style="stop-color:#bc41f8;stop-opacity:1;" offset="0.644531"/><stop style="stop-color:#be3ff8;stop-opacity:1;" offset="0.648437"/><stop style="stop-color:#bf3df8;stop-opacity:1;" offset="0.652344"/><stop style="stop-color:#c13cf8;stop-opacity:1;" offset="0.65625"/><stop style="stop-color:#c33af8;stop-opacity:1;" offset="0.660156"/><stop style="stop-color:#c438f8;stop-opacity:1;" offset="0.664062"/><stop style="stop-color:#c637f8;stop-opacity:1;" offset="0.667969"/><stop style="stop-color:#c835f8;stop-opacity:1;" offset="0.671875"/><stop style="stop-color:#c933f8;stop-opacity:1;" offset="0.675781"/><stop style="stop-color:#cb32f8;stop-opacity:1;" offset="0.679687"/><stop style="stop-color:#cd30f8;stop-opacity:1;" offset="0.683594"/><stop style="stop-color:#ce2ff8;stop-opacity:1;" offset="0.6875"/><stop style="stop-color:#d02df8;stop-opacity:1;" offset="0.691406"/><stop style="stop-color:#d22bf8;stop-opacity:1;" offset="0.695312"/><stop style="stop-color:#d32af8;stop-opacity:1;" offset="0.699219"/><stop style="stop-color:#d528f8;stop-opacity:1;" offset="0.703125"/><stop style="stop-color:#d626f8;stop-opacity:1;" offset="0.707031"/><stop style="stop-color:#d825f8;stop-opacity:1;" offset="0.710937"/><stop style="stop-color:#da23f8;stop-opacity:1;" offset="0.714844"/><stop style="stop-color:#db21f8;stop-opacity:1;" offset="0.71875"/><stop style="stop-color:#dd20f9;stop-opacity:1;" offset="0.722656"/><stop style="stop-color:#df1ef9;stop-opacity:1;" offset="0.726562"/><stop style="stop-color:#e01cf9;stop-opacity:1;" offset="0.730469"/><stop style="stop-color:#e21bf9;stop-opacity:1;" offset="0.734375"/><stop style="stop-color:#e419f9;stop-opacity:1;" offset="0.738281"/><stop style="stop-color:#e518f9;stop-opacity:1;" offset="0.742187"/><stop style="stop-color:#e716f9;stop-opacity:1;" offset="0.746094"/><stop style="stop-color:#e914f9;stop-opacity:1;" offset="0.75"/><stop style="stop-color:#ea13f9;stop-opacity:1;" offset="0.753906"/><stop style="stop-color:#ec11f9;stop-opacity:1;" offset="0.757812"/><stop style="stop-color:#ee0ff9;stop-opacity:1;" offset="0.761719"/><stop style="stop-color:#ef0ef9;stop-opacity:1;" offset="0.765625"/><stop style="stop-color:#f10cf9;stop-opacity:1;" offset="0.769531"/><stop style="stop-color:#f30af9;stop-opacity:1;" offset="0.773437"/><stop style="stop-color:#f409f9;stop-opacity:1;" offset="0.777344"/><stop style="stop-color:#f607f9;stop-opacity:1;" offset="0.78125"/><stop style="stop-color:#f705f9;stop-opacity:1;" offset="0.785156"/><stop style="stop-color:#f904f9;stop-opacity:1;" offset="0.789062"/><stop style="stop-color:#fb02f9;stop-opacity:1;" offset="0.792969"/><stop style="stop-color:#fc01f9;stop-opacity:1;" offset="0.796875"/><stop style="stop-color:#fc01f9;stop-opacity:1;" offset="0.8125"/><stop style="stop-color:#fc01f9;stop-opacity:1;" offset="0.875"/><stop style="stop-color:#fc01f9;stop-opacity:1;" offset="1"/></linearGradient></defs><g id="db6435b580"><g clip-rule="nonzero" clip-path="url(#bb42a831e4)"><rect x="0" width="375" y="0" height="374.999991" style="fill:#ffffff;fill-opacity:1;stroke:none;"/></g><g clip-rule="nonzero" clip-path="url(#013d14e79d)"><g clip-rule="nonzero" clip-path="url(#d3f2f0bb4a)"><path style=" stroke:none;fill-rule:nonzero;fill:url(#219563353c);" d="M 100.203125 278.449219 L 100.203125 96.199219 L 275.0625 96.199219 L 275.0625 278.449219 Z M 100.203125 278.449219 "/></g></g></g></svg>