<svg xmlns="http://www.w3.org/2000/svg" xmlns:xlink="http://www.w3.org/1999/xlink" width="500" zoomAndPan="magnify" viewBox="0 0 375 374.999991" height="500" preserveAspectRatio="xMidYMid meet" version="1.2"><defs><clipPath id="8ae040f8a0"><path d="M 8.226562 0 L 366.867188 0 L 366.867188 375 L 8.226562 375 Z M 8.226562 0 "/></clipPath><clipPath id="08eaf0b22b"><path d="M 197.308594 0.121094 C 212.242188 1.019531 225.359375 9.28125 226.964844 19.390625 C 228.359375 30.828125 216.019531 40.132812 199.355469 39.445312 C 182.449219 39.167969 169 28.941406 169.3125 17.359375 C 169.683594 7.148438 182.265625 -0.222656 197.308594 0.121094 M 248.515625 344.488281 C 260.671875 342.535156 268.144531 347.453125 265.582031 354.878906 C 263.039062 361.242188 252.160156 367.933594 241.425781 370.191406 C 230.140625 372.132812 221.773438 368.742188 223.101562 361.996094 C 224.34375 354.253906 235.773438 346.167969 248.515625 344.488281 Z M 296.023438 265.339844 C 298.238281 263.9375 300.539062 262.71875 302.816406 261.789062 C 311.257812 254.304688 317.933594 243.59375 321.429688 231.785156 C 325.015625 218.710938 324.628906 205.269531 320.445312 194.117188 C 320.472656 194.257812 320.472656 194.257812 320.503906 194.257812 C 313.074219 184.097656 309.578125 169.429688 312.402344 155.0625 C 316.136719 133.371094 332.304688 122.757812 347.5 130.46875 C 360.335938 137.890625 368.253906 158.691406 366.316406 177.835938 C 364.425781 190.582031 358.453125 200.53125 350.609375 204.585938 C 350.648438 204.597656 350.648438 204.597656 350.683594 204.597656 C 343.890625 211.589844 338.019531 222.589844 334.597656 234.96875 C 332.617188 241.695312 331.523438 248.328125 331.339844 254.425781 C 330.515625 268.136719 334.792969 266.332031 336.136719 275.910156 C 336.992188 284.007812 333.945312 294.21875 327.46875 303.847656 C 318.289062 316.921875 303.464844 327.042969 290.664062 327.730469 C 262.753906 326.804688 277.738281 304.09375 263.886719 288.582031 C 260.460938 284.667969 256.050781 281.269531 250.859375 278.605469 C 244.6875 275.542969 237.859375 273.601562 230.742188 272.964844 C 205.824219 270.328125 187.964844 283.316406 181.046875 305.878906 C 179.148438 311.617188 178.6875 317.308594 179.308594 322.640625 C 179.703125 326.746094 184.421875 336.925781 184.421875 336.914062 C 193.15625 343.917969 196.625 353.140625 192.746094 361.417969 C 186.851562 372.308594 167.574219 377.289062 148.625 373.871094 C 129.644531 369.3125 115.726562 356.960938 118 344.867188 C 119.21875 339.367188 123.125 334.742188 128.894531 331.472656 C 139 325.429688 141.804688 329.324219 152.21875 318.652344 C 156.605469 313.898438 159.996094 308.003906 161.9375 301.328125 C 172.964844 262.234375 138.242188 258.09375 146.9375 223.714844 C 153.285156 199.355469 178.636719 184.71875 203.363281 191.320312 C 203.394531 191.335938 203.394531 191.335938 203.4375 191.347656 C 207.628906 192.371094 211.738281 193.980469 215.640625 196.222656 C 247.566406 214.730469 223.90625 241.792969 261.222656 262.148438 C 272.285156 267.910156 284.785156 268.96875 296.121094 265.265625 C 296.03125 265.347656 296.03125 265.347656 296.023438 265.339844 Z M 123.277344 116.152344 C 141.769531 126.160156 158.21875 124.539062 172.46875 111.5 C 186.605469 98.835938 180.785156 97.265625 190.101562 85.828125 C 194.847656 80.078125 201.84375 75.835938 213.046875 73.410156 C 263.417969 64.601562 289.832031 143.382812 238.152344 156.667969 C 224.4375 160.21875 214.449219 158.480469 205.847656 153.507812 C 192.738281 145.992188 198.785156 144.808594 181.347656 140.242188 C 161.667969 135.21875 146.777344 142.191406 134.890625 161.351562 C 130.347656 176.828125 118.277344 188.953125 103.4375 192.855469 C 103.421875 192.855469 103.421875 192.855469 103.402344 192.867188 C 81.238281 199.027344 59.777344 184.9375 54.796875 161.941406 C 52.027344 147.589844 56.320312 132.828125 65.171875 122.085938 C 79.148438 105.964844 85.269531 102.648438 88.488281 79.320312 C 89.703125 71.597656 89.183594 64.558594 86.808594 58.925781 C 83.261719 50.117188 80.929688 52.214844 75.9375 47.355469 C 71.636719 43.222656 70.109375 37.386719 72.371094 30.46875 C 77.132812 18.007812 94.46875 5.636719 111.863281 1.515625 C 130.484375 -1.660156 144.628906 5.597656 143.074219 19.132812 C 142.46875 24.523438 139.855469 29.949219 135.554688 34.894531 C 125.886719 46.546875 121.253906 42.726562 112.40625 58.277344 C 109.175781 64.222656 107.058594 70.847656 106.445312 77.667969 C 104.992188 97.046875 110.679688 104.796875 123.277344 116.152344 Z M 45.507812 221.046875 C 64.480469 222.054688 81.996094 241.191406 83.472656 263.003906 C 85.480469 283.722656 71.738281 297.132812 54.050781 294.015625 C 38.066406 290.269531 23.460938 273.03125 20.132812 254.542969 C 17.65625 235.101562 28.425781 219.6875 45.507812 221.046875 Z M 31.144531 72.453125 C 41.695312 69.328125 48.910156 77.425781 46.535156 91.128906 C 44.542969 105.496094 33.210938 118.957031 21.957031 120.742188 C 11.953125 122.582031 6.535156 113.269531 9.214844 100.222656 C 12.28125 87.96875 21.78125 75.761719 31.144531 72.453125 Z M 299.734375 47.027344 C 309.433594 49.738281 319.179688 59.679688 321.78125 69.488281 C 324.320312 80.152344 318.203125 87.40625 307.789062 85.46875 C 296.71875 83.746094 285.894531 72.761719 284.128906 61.4375 C 282.222656 50.8125 289.3125 44.5 299.734375 47.027344 Z M 299.734375 47.027344 "/></clipPath><linearGradient x1="435.931117" gradientTransform="matrix(0.839916,0,0,-0.839698,6.544904,1123.738623)" y1="1331.204802" x2="-4.747235" gradientUnits="userSpaceOnUse" y2="898.547941" id="4f35586485"><stop style="stop-color:#0deff6;stop-opacity:1;" offset="0"/><stop style="stop-color:#0deff6;stop-opacity:1;" offset="0.125"/><stop style="stop-color:#0deff6;stop-opacity:1;" offset="0.1875"/><stop style="stop-color:#0deff6;stop-opacity:1;" offset="0.21875"/><stop style="stop-color:#0deff6;stop-opacity:1;" offset="0.226562"/><stop style="stop-color:#0eeef6;stop-opacity:1;" offset="0.230469"/><stop style="stop-color:#0fedf6;stop-opacity:1;" offset="0.234375"/><stop style="stop-color:#11ebf6;stop-opacity:1;" offset="0.238281"/><stop style="stop-color:#12eaf6;stop-opacity:1;" offset="0.242187"/><stop style="stop-color:#14e8f6;stop-opacity:1;" offset="0.246094"/><stop style="stop-color:#16e6f6;stop-opacity:1;" offset="0.25"/><stop style="stop-color:#17e5f6;stop-opacity:1;" offset="0.253906"/><stop style="stop-color:#19e3f6;stop-opacity:1;" offset="0.257812"/><stop style="stop-color:#1ae2f6;stop-opacity:1;" offset="0.261719"/><stop style="stop-color:#1ce0f6;stop-opacity:1;" offset="0.265625"/><stop style="stop-color:#1edef6;stop-opacity:1;" offset="0.269531"/><stop style="stop-color:#1fddf6;stop-opacity:1;" offset="0.273437"/><stop style="stop-color:#21dbf6;stop-opacity:1;" offset="0.277344"/><stop style="stop-color:#23d9f6;stop-opacity:1;" offset="0.28125"/><stop style="stop-color:#24d8f6;stop-opacity:1;" offset="0.285156"/><stop style="stop-color:#26d6f6;stop-opacity:1;" offset="0.289062"/><stop style="stop-color:#28d4f6;stop-opacity:1;" offset="0.292969"/><stop style="stop-color:#29d3f6;stop-opacity:1;" offset="0.296875"/><stop style="stop-color:#2bd1f6;stop-opacity:1;" offset="0.300781"/><stop style="stop-color:#2dcff6;stop-opacity:1;" offset="0.304688"/><stop style="stop-color:#2ecef6;stop-opacity:1;" offset="0.308594"/><stop style="stop-color:#30ccf6;stop-opacity:1;" offset="0.3125"/><stop style="stop-color:#32cbf7;stop-opacity:1;" offset="0.316406"/><stop style="stop-color:#33c9f7;stop-opacity:1;" offset="0.320312"/><stop style="stop-color:#35c7f7;stop-opacity:1;" offset="0.324219"/><stop style="stop-color:#37c6f7;stop-opacity:1;" offset="0.328125"/><stop style="stop-color:#38c4f7;stop-opacity:1;" offset="0.332031"/><stop style="stop-color:#3ac2f7;stop-opacity:1;" offset="0.335938"/><stop style="stop-color:#3bc1f7;stop-opacity:1;" offset="0.339844"/><stop style="stop-color:#3dbff7;stop-opacity:1;" offset="0.34375"/><stop style="stop-color:#3fbdf7;stop-opacity:1;" offset="0.347656"/><stop style="stop-color:#40bcf7;stop-opacity:1;" offset="0.351562"/><stop style="stop-color:#42baf7;stop-opacity:1;" offset="0.355469"/><stop style="stop-color:#44b8f7;stop-opacity:1;" offset="0.359375"/><stop style="stop-color:#45b7f7;stop-opacity:1;" offset="0.363281"/><stop style="stop-color:#47b5f7;stop-opacity:1;" offset="0.367188"/><stop style="stop-color:#49b4f7;stop-opacity:1;" offset="0.371094"/><stop style="stop-color:#4ab2f7;stop-opacity:1;" offset="0.375"/><stop style="stop-color:#4cb0f7;stop-opacity:1;" offset="0.378906"/><stop style="stop-color:#4eaff7;stop-opacity:1;" offset="0.382812"/><stop style="stop-color:#4fadf7;stop-opacity:1;" offset="0.386719"/><stop style="stop-color:#51abf7;stop-opacity:1;" offset="0.390625"/><stop style="stop-color:#53aaf7;stop-opacity:1;" offset="0.394531"/><stop style="stop-color:#54a8f7;stop-opacity:1;" offset="0.398438"/><stop style="stop-color:#56a6f7;stop-opacity:1;" offset="0.402344"/><stop style="stop-color:#57a5f7;stop-opacity:1;" offset="0.40625"/><stop style="stop-color:#59a3f7;stop-opacity:1;" offset="0.410156"/><stop style="stop-color:#5ba1f7;stop-opacity:1;" offset="0.414062"/><stop style="stop-color:#5ca0f7;stop-opacity:1;" offset="0.417969"/><stop style="stop-color:#5e9ef7;stop-opacity:1;" offset="0.421875"/><stop style="stop-color:#609df7;stop-opacity:1;" offset="0.425781"/><stop style="stop-color:#619bf7;stop-opacity:1;" offset="0.429688"/><stop style="stop-color:#6399f7;stop-opacity:1;" offset="0.433594"/><stop style="stop-color:#6598f7;stop-opacity:1;" offset="0.4375"/><stop style="stop-color:#6696f7;stop-opacity:1;" offset="0.441406"/><stop style="stop-color:#6894f7;stop-opacity:1;" offset="0.445312"/><stop style="stop-color:#6a93f7;stop-opacity:1;" offset="0.449219"/><stop style="stop-color:#6b91f7;stop-opacity:1;" offset="0.453125"/><stop style="stop-color:#6d8ff7;stop-opacity:1;" offset="0.457031"/><stop style="stop-color:#6f8ef7;stop-opacity:1;" offset="0.460938"/><stop style="stop-color:#708cf7;stop-opacity:1;" offset="0.464844"/><stop style="stop-color:#728af7;stop-opacity:1;" offset="0.46875"/><stop style="stop-color:#7489f7;stop-opacity:1;" offset="0.472656"/><stop style="stop-color:#7587f7;stop-opacity:1;" offset="0.476562"/><stop style="stop-color:#7786f7;stop-opacity:1;" offset="0.480469"/><stop style="stop-color:#7884f7;stop-opacity:1;" offset="0.484375"/><stop style="stop-color:#7a82f7;stop-opacity:1;" offset="0.488281"/><stop style="stop-color:#7c81f7;stop-opacity:1;" offset="0.492188"/><stop style="stop-color:#7d7ff7;stop-opacity:1;" offset="0.496094"/><stop style="stop-color:#7f7df7;stop-opacity:1;" offset="0.5"/><stop style="stop-color:#817cf7;stop-opacity:1;" offset="0.503906"/><stop style="stop-color:#827af7;stop-opacity:1;" offset="0.507812"/><stop style="stop-color:#8478f7;stop-opacity:1;" offset="0.511719"/><stop style="stop-color:#8677f7;stop-opacity:1;" offset="0.515625"/><stop style="stop-color:#8775f8;stop-opacity:1;" offset="0.519531"/><stop style="stop-color:#8974f8;stop-opacity:1;" offset="0.523438"/><stop style="stop-color:#8b72f8;stop-opacity:1;" offset="0.527344"/><stop style="stop-color:#8c70f8;stop-opacity:1;" offset="0.53125"/><stop style="stop-color:#8e6ff8;stop-opacity:1;" offset="0.535156"/><stop style="stop-color:#906df8;stop-opacity:1;" offset="0.539062"/><stop style="stop-color:#916bf8;stop-opacity:1;" offset="0.542969"/><stop style="stop-color:#936af8;stop-opacity:1;" offset="0.546875"/><stop style="stop-color:#9568f8;stop-opacity:1;" offset="0.550781"/><stop style="stop-color:#9666f8;stop-opacity:1;" offset="0.554688"/><stop style="stop-color:#9865f8;stop-opacity:1;" offset="0.558594"/><stop style="stop-color:#9963f8;stop-opacity:1;" offset="0.5625"/><stop style="stop-color:#9b61f8;stop-opacity:1;" offset="0.566406"/><stop style="stop-color:#9d60f8;stop-opacity:1;" offset="0.570312"/><stop style="stop-color:#9e5ef8;stop-opacity:1;" offset="0.574219"/><stop style="stop-color:#a05df8;stop-opacity:1;" offset="0.578125"/><stop style="stop-color:#a25bf8;stop-opacity:1;" offset="0.582031"/><stop style="stop-color:#a359f8;stop-opacity:1;" offset="0.585938"/><stop style="stop-color:#a558f8;stop-opacity:1;" offset="0.589844"/><stop style="stop-color:#a756f8;stop-opacity:1;" offset="0.59375"/><stop style="stop-color:#a854f8;stop-opacity:1;" offset="0.597656"/><stop style="stop-color:#aa53f8;stop-opacity:1;" offset="0.601562"/><stop style="stop-color:#ac51f8;stop-opacity:1;" offset="0.605469"/><stop style="stop-color:#ad4ff8;stop-opacity:1;" offset="0.609375"/><stop style="stop-color:#af4ef8;stop-opacity:1;" offset="0.613281"/><stop style="stop-color:#b14cf8;stop-opacity:1;" offset="0.617188"/><stop style="stop-color:#b24af8;stop-opacity:1;" offset="0.621094"/><stop style="stop-color:#b449f8;stop-opacity:1;" offset="0.625"/><stop style="stop-color:#b547f8;stop-opacity:1;" offset="0.628906"/><stop style="stop-color:#b746f8;stop-opacity:1;" offset="0.632812"/><stop style="stop-color:#b944f8;stop-opacity:1;" offset="0.636719"/><stop style="stop-color:#ba42f8;stop-opacity:1;" offset="0.640625"/><stop style="stop-color:#bc41f8;stop-opacity:1;" offset="0.644531"/><stop style="stop-color:#be3ff8;stop-opacity:1;" offset="0.648438"/><stop style="stop-color:#bf3df8;stop-opacity:1;" offset="0.652344"/><stop style="stop-color:#c13cf8;stop-opacity:1;" offset="0.65625"/><stop style="stop-color:#c33af8;stop-opacity:1;" offset="0.660156"/><stop style="stop-color:#c438f8;stop-opacity:1;" offset="0.664062"/><stop style="stop-color:#c637f8;stop-opacity:1;" offset="0.667969"/><stop style="stop-color:#c835f8;stop-opacity:1;" offset="0.671875"/><stop style="stop-color:#c933f8;stop-opacity:1;" offset="0.675781"/><stop style="stop-color:#cb32f8;stop-opacity:1;" offset="0.679688"/><stop style="stop-color:#cd30f8;stop-opacity:1;" offset="0.683594"/><stop style="stop-color:#ce2ff8;stop-opacity:1;" offset="0.6875"/><stop style="stop-color:#d02df8;stop-opacity:1;" offset="0.691406"/><stop style="stop-color:#d22bf8;stop-opacity:1;" offset="0.695312"/><stop style="stop-color:#d32af8;stop-opacity:1;" offset="0.699219"/><stop style="stop-color:#d528f8;stop-opacity:1;" offset="0.703125"/><stop style="stop-color:#d626f8;stop-opacity:1;" offset="0.707031"/><stop style="stop-color:#d825f8;stop-opacity:1;" offset="0.710938"/><stop style="stop-color:#da23f8;stop-opacity:1;" offset="0.714844"/><stop style="stop-color:#db21f8;stop-opacity:1;" offset="0.71875"/><stop style="stop-color:#dd20f9;stop-opacity:1;" offset="0.722656"/><stop style="stop-color:#df1ef9;stop-opacity:1;" offset="0.726562"/><stop style="stop-color:#e01cf9;stop-opacity:1;" offset="0.730469"/><stop style="stop-color:#e21bf9;stop-opacity:1;" offset="0.734375"/><stop style="stop-color:#e419f9;stop-opacity:1;" offset="0.738281"/><stop style="stop-color:#e518f9;stop-opacity:1;" offset="0.742188"/><stop style="stop-color:#e716f9;stop-opacity:1;" offset="0.746094"/><stop style="stop-color:#e914f9;stop-opacity:1;" offset="0.75"/><stop style="stop-color:#ea13f9;stop-opacity:1;" offset="0.753906"/><stop style="stop-color:#ec11f9;stop-opacity:1;" offset="0.757812"/><stop style="stop-color:#ee0ff9;stop-opacity:1;" offset="0.761719"/><stop style="stop-color:#ef0ef9;stop-opacity:1;" offset="0.765625"/><stop style="stop-color:#f10cf9;stop-opacity:1;" offset="0.769531"/><stop style="stop-color:#f30af9;stop-opacity:1;" offset="0.773438"/><stop style="stop-color:#f409f9;stop-opacity:1;" offset="0.777344"/><stop style="stop-color:#f607f9;stop-opacity:1;" offset="0.78125"/><stop style="stop-color:#f705f9;stop-opacity:1;" offset="0.785156"/><stop style="stop-color:#f904f9;stop-opacity:1;" offset="0.789062"/><stop style="stop-color:#fb02f9;stop-opacity:1;" offset="0.792969"/><stop style="stop-color:#fc01f9;stop-opacity:1;" offset="0.796875"/><stop style="stop-color:#fc01f9;stop-opacity:1;" offset="0.8125"/><stop style="stop-color:#fc01f9;stop-opacity:1;" offset="0.875"/><stop style="stop-color:#fc01f9;stop-opacity:1;" offset="1"/></linearGradient></defs><g id="42796568ce"><g clip-rule="nonzero" clip-path="url(#8ae040f8a0)"><g clip-rule="nonzero" clip-path="url(#08eaf0b22b)"><path style=" stroke:none;fill-rule:nonzero;fill:url(#4f35586485);" d="M 8.226562 375 L 8.226562 0 L 366.867188 0 L 366.867188 375 Z M 8.226562 375 "/></g></g></g></svg>